<?xml version="1.0" encoding="UTF-8" standalone="no"?>
<!DOCTYPE svg PUBLIC "-//W3C//DTD SVG 1.1//EN" "http://www.w3.org/Graphics/SVG/1.1/DTD/svg11.dtd">
<svg width="100%" height="100%" viewBox="0 0 3000 3000" version="1.1" xmlns="http://www.w3.org/2000/svg" xmlns:xlink="http://www.w3.org/1999/xlink" xml:space="preserve" xmlns:serif="http://www.serif.com/" style="fill-rule:evenodd;clip-rule:evenodd;stroke-linejoin:round;stroke-miterlimit:2;">
    <g transform="matrix(1.56206,0,0,1.56206,-234.672,-1236.74)">
        <path d="M1016.9,1752L712.399,1447.5L1110.5,1049.4L1508.6,1447.5L1204.1,1752L1508.6,2056.5L1110.5,2454.6L712.399,2056.5L1016.9,1752ZM1320.6,2056.5L1110.5,1846.4L900.399,2056.5L1110.5,2266.6L1320.6,2056.5ZM1320.6,1447.5L1110.5,1237.4L900.399,1447.5L1110.5,1657.6L1320.6,1447.5ZM300.984,1818.47L300.984,1685.53L864.016,1685.53L864.016,1818.47L300.984,1818.47ZM1356.98,1818.47L1356.98,1685.53L1920.02,1685.53L1920.02,1818.47L1356.98,1818.47Z" style="fill:rgb(0,2,101);"/>
    </g>
</svg>
